HIERARCHY
ROOT Hip
{
    OFFSET 0.0 0.0 0.0
    CHANNELS 6 Xposition Yposition Zposition Zrotation Xrotation Yrotation
    JOINT RightHip
    {
        OFFSET -6.154646581646247 0.0 0.0
        CHANNELS 3 Zrotation Xrotation Yrotation
        JOINT RightKnee
        {
            OFFSET 0.0 0.0 -26.456573017723734
            CHANNELS 3 Zrotation Xrotation Yrotation
            JOINT RightAnkle
            {
                OFFSET 0.0 0.0 -30.48367641568322
                CHANNELS 3 Zrotation Xrotation Yrotation
                End Site
                {
                    OFFSET 0.0 -12.19347056627329 0.0
                }
            }
        }
    }
    JOINT LeftHip
    {
        OFFSET 6.154646581646247 0.0 0.0
        CHANNELS 3 Zrotation Xrotation Yrotation
        JOINT LeftKnee
        {
            OFFSET 0.0 0.0 -26.456573017723734
            CHANNELS 3 Zrotation Xrotation Yrotation
            JOINT LeftAnkle
            {
                OFFSET 0.0 0.0 -30.48367641568322
                CHANNELS 3 Zrotation Xrotation Yrotation
                End Site
                {
                    OFFSET 0.0 -12.19347056627329 0.0
                }
            }
        }
    }
    JOINT Spine
    {
        OFFSET 0.0 0.0 19.468948628340613
        CHANNELS 3 Zrotation Xrotation Yrotation
        JOINT Thorax
        {
            OFFSET 0.0 0.0 19.79530555250011
            CHANNELS 3 Zrotation Xrotation Yrotation
            JOINT Neck
            {
                OFFSET 0.0 0.0 11.70365148178162
                CHANNELS 3 Zrotation Xrotation Yrotation
                End Site
                {
                    OFFSET 0.0 0.0 4.681460592712648
                }
            }
            JOINT LeftShoulder
            {
                OFFSET 9.203409744784121 0.0 0.0
                CHANNELS 3 Zrotation Xrotation Yrotation
                JOINT LeftElbow
                {
                    OFFSET 24.42726027385425 0.0 0.0
                    CHANNELS 3 Zrotation Xrotation Yrotation
                    JOINT LeftWrist
                    {
                        OFFSET 14.680553440884506 0.0 0.0
                        CHANNELS 3 Zrotation Xrotation Yrotation
                        End Site
                        {
                            OFFSET 5.872221376353803 0.0 0.0
                        }
                    }
                }
            }
            JOINT RightShoulder
            {
                OFFSET -9.203409744784121 0.0 0.0
                CHANNELS 3 Zrotation Xrotation Yrotation
                JOINT RightElbow
                {
                    OFFSET -24.42726027385425 0.0 0.0
                    CHANNELS 3 Zrotation Xrotation Yrotation
                    JOINT RightWrist
                    {
                        OFFSET -14.680553440884506 0.0 0.0
                        CHANNELS 3 Zrotation Xrotation Yrotation
                        End Site
                        {
                            OFFSET -5.872221376353803 0.0 0.0
                        }
                    }
                }
            }
        }
    }
}
MOTION
Frames: 6
Frame Time: 0.03333333333333333
0.0 0.0 69.13840256258285 34.143083431791666 -1.1957408104095888 -3.4534557306157967 16.834372385650063 -10.148472621494081 11.897122417915352 -21.725403055638047 26.300747008187898 -6.791005126613792 0.0 0.0 0.0 -8.828825055884336 -4.727898614105922 2.6539893334897022 13.615656252040031 14.252175705722992 -0.9060312948491668 0.0 0.0 0.0 -0.3101300053306249 4.349772671984361 -0.8373474193072182 -4.066211175158203 -1.704504444990112e-16 -8.016903985646573e-16 144.90251988290518 14.496082793400502 -33.44927749928766 9.447090039161086 9.660194936444741 95.3396094935752 -39.824303989192614 6.045636751002681e-15 -3.471535270977464e-16 -3.1805546814635168e-15 2.2069531490250793e-32 -7.951386703658792e-16 54.44140127935606 0.3806372432872026 -90.07772864953222 123.5976508416449 -3.0060620201577653e-15 5.606006016593541e-15 0.0 0.0 0.0
0.0 0.0 69.13840256258285 34.06335490163914 -1.223589333219217 -3.620714907267399 17.044616200502574 -10.06275637446615 12.094058845791526 -21.851630211825768 26.305227120114306 -6.795531693146561 0.0 1.2424041724466862e-17 0.0 -8.785613480498377 -4.62147414101863 2.8279243928279505 13.63722566894421 14.301472124817286 -0.9108079221813188 0.0 0.0 0.0 -0.3202153668242872 4.316207371922361 -0.9486887311631569 -3.90835307827298 -6.778597430292638e-18 1.9866905820063973e-16 144.60559032081335 15.237130576977911 -34.08858297062879 9.138601981276503 9.696870126305088 95.63868217593117 -39.54754226420439 5.7340318258464315e-15 7.553661504346818e-15 1.5902773407317584e-15 2.2069531490250793e-32 1.5902773407317584e-15 54.55242044952515 0.29874663888550407 -90.18145253803657 123.21247776883257 5.595870183409155e-15 3.0248882983591895e-15 3.1805546814635168e-15 0.0 0.0
0.0 0.0 69.13840256258285 34.469896449217096 -1.2353893806066956 -3.589738188182156 17.009028419670532 -10.038043928577276 12.09049665859164 -22.0230472521618 26.287230378340585 -6.846974669302353 0.0 0.0 -3.975693351829396e-16 -8.828385868715507 -4.605607214286002 2.403537682541344 13.761025201758885 14.336974048790935 -0.6343873137318662 0.0 0.0 -3.975693351829396e-16 -0.3211833201813093 4.32068535706502 -0.8425355476702202 -4.291516882788508 -7.871382722002706e-16 -2.2841670170598756e-16 144.8954229837078 14.940214800527556 -34.06384793730796 9.23507661739192 9.680858655337572 95.45863299208752 -39.600627518223774 1.0100539363607147e-15 -2.80548453235243e-15 0.0 -6.361109362927032e-15 0.0 54.63085387604704 0.14750559533303956 -90.23706660089512 123.56309593313848 1.1210198576687951e-14 6.015504731915294e-15 1.5902773407317584e-15 0.0 0.0
0.0 0.0 69.13840256258285 34.267775035026155 -1.1763006243555398 -3.409312305328025 16.649686904678095 -10.198721302637876 11.779667865783214 -21.516043029063898 26.12735158047061 -6.793276362653559 0.0 0.0 0.0 -8.80282561473196 -4.702070602500268 2.1983981016111804 13.93999614141149 14.399777651169275 -0.6464660822303828 0.0 0.0 -3.975693351829396e-16 -0.25727505638990367 4.346957533334557 -0.7321207976238675 -4.2655384444306765 5.336065149465388e-16 -9.747402676492632e-16 145.0540631076271 14.363900580977353 -33.27213184927259 8.359836441997789 9.563931695078411 95.74333217443993 -39.287263071085924 1.122243061138985e-15 -5.509341681842424e-15 2.3854160110976376e-15 5.793252016190833e-32 2.782985346280577e-15 54.543352745934044 0.21413441672299502 -90.2264857395814 123.49878353851368 -5.603410360257058e-15 -3.0108976504826347e-15 -1.5902773407317584e-15 0.0 0.0
0.0 0.0 69.13840256258285 34.25376661875161 -1.3882927206106739 -3.408370157603588 16.872168081630143 -9.79615234856342 11.778656764903449 -21.98382055857099 26.647708963712347 -6.8606909283007775 0.0 0.0 0.0 -9.397997065042597 -4.657481746984833 2.124032999227106 14.27921107443775 14.924515859346487 -0.6367054126501693 0.0 0.0 0.0 -0.31915898922603964 4.4752617280886025 -0.6786549054043082 -4.269217480226189 1.2837995229708298e-15 2.4677401772397273e-16 139.99171635617617 16.461235251430907 -30.80021901516024 11.814436630162284 10.165245149981322 95.23815628305272 -41.50125965068176 3.952156577721635e-15 -5.942704509791323e-15 1.5902773407317584e-15 -2.2069531490250793e-32 -1.5902773407317584e-15 52.57825782474989 -2.311077851307179 -92.55290965774311 124.7350718297057 8.320863941411866e-15 1.1536107875020136e-14 1.5902773407317584e-15 0.0 0.0
0.0 0.0 69.13840256258285 35.06476035922787 -1.4358220025196415 -3.211495034809465 16.92496871030138 -10.106876327215652 12.02474220613956 -21.73355974529648 27.04636094596124 -7.349834508001897 0.0 0.0 0.0 -9.217505434207066 -4.407066701875219 1.921557056148903 13.957768529105707 14.938672810328608 -0.20286408433483902 0.0 0.0 -3.975693351829396e-16 -0.37789649633453437 4.5606590887370615 -0.39834555196741217 -4.564948731064172 1.016885271094134e-15 -5.562967227956214e-16 136.4187101654904 18.73683885774673 -30.447574820332623 11.380448005683496 10.099198201039178 94.61761151203687 -41.64396821549458 -1.0399843378026769e-14 4.97723569485577e-15 -2.385416011097638e-15 -6.3611093629270335e-15 -3.975693351829396e-15 52.18678954138859 -2.8289727032679086 -92.38673665013056 126.44324881917557 8.597814686196162e-15 -1.7036754196908848e-14 -1.5902773407317584e-15 0.0 0.0
